<svg width="208" height="124" viewBox="0 0 208 124" fill="none" xmlns="http://www.w3.org/2000/svg">
<path d="M1.976 38.746C1.976 36.9473 2.584 35.554 3.8 34.566C5.016 33.5527 6.85267 33.046 9.31 33.046C10.9313 33.046 12.426 33.236 13.794 33.616V36.922C12.2993 36.4913 10.83 36.276 9.386 36.276C7.942 36.276 6.94133 36.504 6.384 36.96C5.852 37.416 5.586 38.1 5.586 39.012V53.262C5.586 54.1487 5.86467 54.82 6.422 55.276C6.97933 55.732 8.00533 55.96 9.5 55.96C10.9947 55.96 12.464 55.7573 13.908 55.352V58.582C12.5907 58.9873 11.0453 59.19 9.272 59.19C4.408 59.19 1.976 57.29 1.976 53.49V38.746ZM17.5337 31.336H21.1057V37.872C22.3977 37.3147 23.7784 37.036 25.2477 37.036C26.7424 37.036 27.9584 37.454 28.8957 38.29C29.8331 39.126 30.3017 40.3673 30.3017 42.014V59H26.6537V42.622C26.6537 41.1273 25.9064 40.38 24.4117 40.38C23.2717 40.38 22.1697 40.646 21.1057 41.178V59H17.5337V31.336ZM38.5887 52.73V53.87C38.5887 54.706 38.7787 55.3267 39.1587 55.732C39.564 56.1373 40.3367 56.34 41.4767 56.34C42.642 56.34 43.706 55.9473 44.6687 55.162V48.816L41.0587 49.804C40.0707 50.0827 39.412 50.4373 39.0827 50.868C38.7534 51.2733 38.5887 51.894 38.5887 52.73ZM36.1187 37.682C37.5627 37.2007 39.3994 36.96 41.6287 36.96C45.9607 36.96 48.1267 38.9233 48.1267 42.85V59H44.7067V57.442C43.592 58.5567 42.1227 59.114 40.2987 59.114C36.8027 59.114 35.0547 57.3533 35.0547 53.832V52.578C35.0547 51.1593 35.422 50.0193 36.1567 49.158C36.8914 48.2713 38.0694 47.6 39.6907 47.144L44.6687 45.776V42.85C44.6687 41.9127 44.4154 41.2413 43.9087 40.836C43.402 40.4053 42.3254 40.19 40.6787 40.19C39.0574 40.19 37.5374 40.4433 36.1187 40.95V37.682ZM56.3237 33.236V37.15H60.7317V40.228H56.3237V53.794C56.3237 55.2633 57.0837 55.998 58.6037 55.998C59.3384 55.998 60.1617 55.846 61.0737 55.542V58.772C61.0484 58.772 60.9217 58.7973 60.6937 58.848C60.4911 58.8987 60.2757 58.9493 60.0477 59C59.3637 59.152 58.7051 59.228 58.0717 59.228C54.5251 59.228 52.7517 57.5053 52.7517 54.06V40.228H50.4717V37.15H52.8657L53.9297 33.236H56.3237Z" fill="#99DF6B"/>
<path d="M101.356 33.236H112.756V36.39H104.966V45.054H112.338V48.246H104.966V59H101.356V33.236ZM125.064 37.036H125.938V40.418H124.798C123.607 40.418 122.302 40.8993 120.884 41.862V59H117.312V37.15H120.732V38.746C120.808 38.6953 120.947 38.594 121.15 38.442C121.378 38.29 121.517 38.2013 121.568 38.176C121.644 38.1253 121.77 38.0367 121.948 37.91C122.15 37.7833 122.29 37.7073 122.366 37.682C122.442 37.6567 122.556 37.606 122.708 37.53C122.885 37.4287 123.024 37.3653 123.126 37.34C123.227 37.3147 123.354 37.2767 123.506 37.226C123.683 37.15 123.848 37.112 124 37.112C124.456 37.0613 124.81 37.036 125.064 37.036ZM133.877 33.16C133.877 34.5533 133.181 35.25 131.787 35.25C130.394 35.25 129.697 34.5533 129.697 33.16C129.697 31.7413 130.394 31.032 131.787 31.032C133.181 31.032 133.877 31.7413 133.877 33.16ZM130.001 37.416H133.573V59H130.001V37.416ZM139.417 53.224V42.736C139.417 40.912 139.949 39.468 141.013 38.404C142.077 37.3147 143.698 36.77 145.877 36.77C148.056 36.77 149.664 37.3147 150.703 38.404C151.742 39.468 152.261 40.912 152.261 42.736V49.69H142.913V53.034C142.913 54.0473 143.217 54.7947 143.825 55.276C144.458 55.7573 145.548 55.998 147.093 55.998C148.664 55.998 150.184 55.77 151.653 55.314V58.582C150.133 58.9873 148.512 59.19 146.789 59.19C141.874 59.19 139.417 57.2013 139.417 53.224ZM142.913 46.802H148.879V42.774C148.879 40.798 147.878 39.81 145.877 39.81C143.901 39.81 142.913 40.798 142.913 42.774V46.802ZM161.251 38.138C162.872 37.4287 164.379 37.074 165.773 37.074C167.191 37.074 168.344 37.5047 169.231 38.366C170.143 39.202 170.599 40.418 170.599 42.014V59H166.951V42.622C166.951 41.1273 166.203 40.38 164.709 40.38C163.619 40.38 162.517 40.6587 161.403 41.216V59H157.831V37.15H161.251V38.138ZM185.497 40.38H182.913C180.861 40.38 179.835 41.3427 179.835 43.268V53.338C179.835 55.0353 180.671 55.884 182.343 55.884C183.686 55.884 184.737 55.5293 185.497 54.82V40.38ZM185.497 31.336H189.107V59H185.573V57.632C184.535 58.62 183.167 59.114 181.469 59.114C179.772 59.114 178.48 58.658 177.593 57.746C176.707 56.8087 176.263 55.4787 176.263 53.756V43.154C176.263 41.2793 176.808 39.81 177.897 38.746C178.987 37.682 180.507 37.15 182.457 37.15H185.497V31.336ZM193.94 42.47C193.94 40.6207 194.472 39.24 195.536 38.328C196.625 37.416 198.386 36.96 200.818 36.96C202.439 36.96 203.883 37.1627 205.15 37.568V40.836C203.934 40.38 202.591 40.152 201.122 40.152C199.653 40.152 198.677 40.3547 198.196 40.76C197.715 41.14 197.474 41.7733 197.474 42.66V43.42C197.474 44.104 197.613 44.6233 197.892 44.978C198.171 45.3327 198.703 45.7127 199.488 46.118L202.718 47.866C204.897 49.0313 205.986 50.602 205.986 52.578V53.566C205.986 57.3153 203.554 59.19 198.69 59.19C197.043 59.19 195.485 59 194.016 58.62V55.314C195.308 55.7447 196.727 55.96 198.272 55.96C199.843 55.96 200.919 55.7573 201.502 55.352C202.11 54.9467 202.414 54.326 202.414 53.49V52.844C202.414 52.236 202.249 51.7547 201.92 51.4C201.616 51.02 200.995 50.5893 200.058 50.108L196.98 48.512C194.953 47.4733 193.94 45.8647 193.94 43.686V42.47Z" fill="#C3A6AD"/>
<path d="M93.6 54.904V58.936H89.248V67H84.832V58.936H68.64V54.84L82.272 23.992H89.248V54.904H93.6ZM84.896 54.904V27.768L72.928 54.904H84.896Z" fill="#6D001B"/>
<g filter="url(#filter0_d_5_18)">
<rect x="12.5" y="74.5" width="183" height="41" rx="20.5" fill="#D9D9D9" fill-opacity="0.5" stroke="#3F8D0D"/>
</g>
<path d="M27.5 81L27.5 110" stroke="black" stroke-opacity="0.65"/>
<defs>
<filter id="filter0_d_5_18" x="8" y="74" width="192" height="50" filterUnits="userSpaceOnUse" color-interpolation-filters="sRGB">
<feFlood flood-opacity="0" result="BackgroundImageFix"/>
<feColorMatrix in="SourceAlpha" type="matrix" values="0 0 0 0 0 0 0 0 0 0 0 0 0 0 0 0 0 0 127 0" result="hardAlpha"/>
<feOffset dy="4"/>
<feGaussianBlur stdDeviation="2"/>
<feComposite in2="hardAlpha" operator="out"/>
<feColorMatrix type="matrix" values="0 0 0 0 0 0 0 0 0 0 0 0 0 0 0 0 0 0 0.25 0"/>
<feBlend mode="normal" in2="BackgroundImageFix" result="effect1_dropShadow_5_18"/>
<feBlend mode="normal" in="SourceGraphic" in2="effect1_dropShadow_5_18" result="shape"/>
</filter>
</defs>
</svg>
